<?xml version="1.0" encoding="UTF-8" standalone="no"?>
<svg
   xmlns:dc="http://purl.org/dc/elements/1.1/"
   xmlns:cc="http://creativecommons.org/ns#"
   xmlns:rdf="http://www.w3.org/1999/02/22-rdf-syntax-ns#"
   xmlns:svg="http://www.w3.org/2000/svg"
   xmlns="http://www.w3.org/2000/svg"
   xmlns:sodipodi="http://sodipodi.sourceforge.net/DTD/sodipodi-0.dtd"
   xmlns:inkscape="http://www.inkscape.org/namespaces/inkscape"
   id="Layer_1"
   data-name="Layer 1"
   viewBox="0 0 157.2 79.85"
   version="1.1"
   sodipodi:docname="icon3.svg"
   inkscape:version="0.92.4 (5da689c313, 2019-01-14)">
  <metadata
     id="metadata1866">
    <rdf:RDF>
      <cc:Work
         rdf:about="">
        <dc:format>image/svg+xml</dc:format>
        <dc:type
           rdf:resource="http://purl.org/dc/dcmitype/StillImage" />
      </cc:Work>
    </rdf:RDF>
  </metadata>
  <sodipodi:namedview
     pagecolor="#ffffff"
     bordercolor="#666666"
     borderopacity="1"
     objecttolerance="10"
     gridtolerance="10"
     guidetolerance="10"
     inkscape:pageopacity="0"
     inkscape:pageshadow="2"
     inkscape:window-width="1920"
     inkscape:window-height="1017"
     id="namedview1864"
     showgrid="false"
     inkscape:zoom="2.2646311"
     inkscape:cx="78.599998"
     inkscape:cy="39.924999"
     inkscape:window-x="-8"
     inkscape:window-y="-8"
     inkscape:window-maximized="1"
     inkscape:current-layer="Layer_1" />
  <defs
     id="defs1803">
    <style
       id="style1801">.cls-1{fill:#0f393e;}.cls-2{fill:#8cc4c1;}.cls-3{fill:#549393;}.cls-4{fill:#c5eae7;}.cls-5{fill:#141422;stroke:#c5eae7;stroke-linecap:round;stroke-linejoin:round;stroke-width:1.56px;}</style>
  </defs>
  <title
     id="title1805">01</title>
  <rect
     class="cls-1"
     x="14.5"
     y="12.68"
     width="130.66"
     height="7.03"
     id="rect1807"
     style="fill:#003380;fill-opacity:0.94117647" />
  <rect
     class="cls-1"
     x="14.5"
     y="40.58"
     width="142.7"
     height="7.03"
     id="rect1809"
     style="fill:#003380;fill-opacity:0.94117647" />
  <rect
     class="cls-2"
     y="12.68"
     width="9.17"
     height="7.03"
     id="rect1811"
     style="fill:#0055d4;fill-opacity:1" />
  <rect
     class="cls-2"
     x="34.37"
     width="82.9"
     height="79.85"
     rx="8.25"
     ry="8.25"
     id="rect1813"
     style="fill:#1482c2;fill-opacity:1" />
  <rect
     class="cls-3"
     x="46.03"
     y="52.27"
     width="62.3"
     height="4.11"
     id="rect1815"
     style="fill:#003380;fill-opacity:0.94117647" />
  <rect
     class="cls-3"
     x="46.03"
     y="64.98"
     width="62.3"
     height="4.11"
     id="rect1817"
     style="fill:#003380;fill-opacity:0.94117647" />
  <rect
     class="cls-4"
     x="34.37"
     y="8.49"
     width="82.9"
     height="15.9"
     id="rect1819"
     style="fill:#0055d4" />
  <path
     class="cls-1"
     d="M44.55,11h5.26v1.06h-4v3.24h3.69v1H45.81v4.42H44.55Z"
     id="path1821" />
  <path
     class="cls-1"
     d="M52.64,11.82a.79.79,0,0,1-1.58,0,.78.78,0,0,1,.8-.8A.76.76,0,0,1,52.64,11.82Zm-1.42,9v-7h1.27v7Z"
     id="path1823" />
  <path
     class="cls-1"
     d="M54.63,10.51h1.27V20.79H54.63Z"
     id="path1825" />
  <path
     class="cls-1"
     d="M58.79,17.52A2.25,2.25,0,0,0,61.2,20a4.6,4.6,0,0,0,1.94-.36l.22.91a5.67,5.67,0,0,1-2.33.43,3.25,3.25,0,0,1-3.45-3.53c0-2.11,1.25-3.78,3.29-3.78,2.29,0,2.9,2,2.9,3.3a5,5,0,0,1,0,.59Zm3.74-.91a1.81,1.81,0,0,0-1.77-2.07,2.11,2.11,0,0,0-2,2.07Z"
     id="path1827" />
  <path
     class="cls-1"
     d="M69.77,11v4.08h4.72V11h1.27v9.76H74.49V16.22H69.77v4.58H68.51V11Z"
     id="path1829" />
  <path
     class="cls-1"
     d="M79.5,11.82a.79.79,0,0,1-1.58,0,.78.78,0,0,1,.8-.8A.76.76,0,0,1,79.5,11.82Zm-1.42,9v-7h1.27v7Z"
     id="path1831" />
  <path
     class="cls-1"
     d="M81.33,19.49A3.33,3.33,0,0,0,83,20c.93,0,1.36-.46,1.36-1S84,18,83.07,17.67c-1.26-.45-1.85-1.14-1.85-2a2.16,2.16,0,0,1,2.42-2.06,3.5,3.5,0,0,1,1.72.43L85,15a2.73,2.73,0,0,0-1.43-.41c-.75,0-1.17.43-1.17,1s.42.84,1.33,1.19c1.22.46,1.84,1.07,1.84,2.11,0,1.23-1,2.1-2.62,2.1a4,4,0,0,1-2-.48Z"
     id="path1833" />
  <path
     class="cls-1"
     d="M88.8,11.77v2h1.83v1H88.8v3.78c0,.87.25,1.36,1,1.36a2.85,2.85,0,0,0,.74-.09l.06,1a3.11,3.11,0,0,1-1.13.17A1.77,1.77,0,0,1,88,20.4a2.6,2.6,0,0,1-.49-1.83V14.76H86.47v-1h1.09V12.11Z"
     id="path1835" />
  <path
     class="cls-1"
     d="M98.35,17.23A3.43,3.43,0,0,1,94.86,21a3.33,3.33,0,0,1-3.36-3.61A3.42,3.42,0,0,1,95,13.63,3.32,3.32,0,0,1,98.35,17.23Zm-5.56.07c0,1.54.88,2.69,2.13,2.69S97,18.85,97,17.28c0-1.19-.59-2.69-2.1-2.69S92.78,16,92.78,17.3Z"
     id="path1837" />
  <path
     class="cls-1"
     d="M100,16c0-.83,0-1.54-.06-2.19H101l0,1.38h.06a2.1,2.1,0,0,1,1.94-1.54,1.36,1.36,0,0,1,.36,0v1.2a2,2,0,0,0-.43,0,1.79,1.79,0,0,0-1.71,1.64,3.56,3.56,0,0,0-.06.59v3.74H100Z"
     id="path1839" />
  <path
     class="cls-1"
     d="M105.57,13.79l1.54,4.14c.16.46.33,1,.45,1.43h0c.13-.42.28-1,.45-1.46l1.39-4.11h1.35l-1.91,5c-.91,2.4-1.54,3.63-2.4,4.39a3.45,3.45,0,0,1-1.56.83l-.32-1.07a3.39,3.39,0,0,0,1.12-.62,3.88,3.88,0,0,0,1.07-1.42.92.92,0,0,0,.1-.3,1.11,1.11,0,0,0-.09-.33l-2.59-6.46Z"
     id="path1841" />
  <path
     class="cls-1"
     d="M44.55,27.33h5.26v1.06h-4v3.24h3.69v1H45.81v4.42H44.55Z"
     id="path1843" />
  <path
     class="cls-1"
     d="M52.64,28.11a.79.79,0,0,1-1.58,0,.78.78,0,0,1,.8-.8A.76.76,0,0,1,52.64,28.11Zm-1.42,9v-7h1.27v7Z"
     id="path1845" />
  <path
     class="cls-1"
     d="M54.63,26.81h1.27V37.09H54.63Z"
     id="path1847" />
  <path
     class="cls-1"
     d="M58.79,33.82a2.25,2.25,0,0,0,2.4,2.43,4.6,4.6,0,0,0,1.94-.36l.22.91a5.67,5.67,0,0,1-2.33.43,3.25,3.25,0,0,1-3.45-3.53c0-2.11,1.25-3.78,3.29-3.78,2.29,0,2.9,2,2.9,3.3a5,5,0,0,1,0,.59Zm3.74-.91a1.81,1.81,0,0,0-1.77-2.07,2.11,2.11,0,0,0-2,2.07Z"
     id="path1849" />
  <path
     class="cls-1"
     d="M68.51,27.46a12.26,12.26,0,0,1,2.3-.2,4,4,0,0,1,2.68.71,2,2,0,0,1,.81,1.72,2.32,2.32,0,0,1-1.65,2.14v0a2.52,2.52,0,0,1,2,2.45,2.63,2.63,0,0,1-.83,2,4.91,4.91,0,0,1-3.37.91,14.6,14.6,0,0,1-2-.12Zm1.26,4h1.14c1.33,0,2.11-.7,2.11-1.64,0-1.14-.87-1.59-2.14-1.59a5.45,5.45,0,0,0-1.12.09Zm0,4.68a6.65,6.65,0,0,0,1.06.06c1.3,0,2.51-.48,2.51-1.9s-1.14-1.88-2.52-1.88h-1Z"
     id="path1851" />
  <path
     class="cls-1"
     d="M76.35,26.81h1.27V37.09H76.35Z"
     id="path1853" />
  <path
     class="cls-1"
     d="M83.67,37.09l-.1-.88h0a2.61,2.61,0,0,1-2.14,1,2,2,0,0,1-2.14-2c0-1.69,1.51-2.62,4.21-2.61v-.14a1.44,1.44,0,0,0-1.59-1.62,3.48,3.48,0,0,0-1.82.52l-.29-.84a4.35,4.35,0,0,1,2.3-.62c2.14,0,2.66,1.46,2.66,2.87v2.62a9.86,9.86,0,0,0,.12,1.68Zm-.19-3.58c-1.39,0-3,.22-3,1.58a1.13,1.13,0,0,0,1.2,1.22,1.74,1.74,0,0,0,1.69-1.17,1.32,1.32,0,0,0,.07-.41Z"
     id="path1855" />
  <path
     class="cls-1"
     d="M86.8,32c0-.72,0-1.32-.06-1.9h1.12l.06,1.13h0a2.41,2.41,0,0,1,2.2-1.29,2.07,2.07,0,0,1,2,1.4h0a2.9,2.9,0,0,1,.78-.91,2.39,2.39,0,0,1,1.55-.49c.93,0,2.3.61,2.3,3v4.13H95.56v-4c0-1.35-.49-2.16-1.52-2.16a1.65,1.65,0,0,0-1.51,1.16,2.11,2.11,0,0,0-.1.64v4.33H91.19v-4.2c0-1.12-.49-1.93-1.46-1.93A1.9,1.9,0,0,0,88,32.86v4.23H86.8Z"
     id="path1857" />
  <path
     class="cls-1"
     d="M99.62,33.82a2.25,2.25,0,0,0,2.4,2.43,4.6,4.6,0,0,0,1.94-.36l.22.91a5.67,5.67,0,0,1-2.33.43,3.25,3.25,0,0,1-3.45-3.53c0-2.11,1.25-3.78,3.29-3.78,2.29,0,2.9,2,2.9,3.3a5,5,0,0,1,0,.59Zm3.74-.91a1.81,1.81,0,0,0-1.77-2.07,2.11,2.11,0,0,0-2,2.07Z"
     id="path1859" />
  <polygon
     class="cls-5"
     points="22.63 11.67 22.63 35.15 27.9 28.61 33.59 39.92 39.02 37.52 32.88 26.25 41.16 26.3 22.63 11.67"
     id="polygon1861"
     style="stroke:#0055d4;stroke-opacity:1;fill:#003380;fill-opacity:0.94117647" />
</svg>
