<?xml version="1.0" encoding="UTF-8" standalone="no"?>
<!-- Generator: Adobe Illustrator 21.1.0, SVG Export Plug-In . SVG Version: 6.00 Build 0)  -->

<svg
   xmlns:dc="http://purl.org/dc/elements/1.1/"
   xmlns:cc="http://creativecommons.org/ns#"
   xmlns:rdf="http://www.w3.org/1999/02/22-rdf-syntax-ns#"
   xmlns:svg="http://www.w3.org/2000/svg"
   xmlns="http://www.w3.org/2000/svg"
   xmlns:sodipodi="http://sodipodi.sourceforge.net/DTD/sodipodi-0.dtd"
   xmlns:inkscape="http://www.inkscape.org/namespaces/inkscape"
   version="1.1"
   id="Layer_1"
   x="0px"
   y="0px"
   viewBox="0 0 124.4 95.7"
   style="enable-background:new 0 0 124.4 95.7;"
   xml:space="preserve"
   sodipodi:docname="icon2.svg"
   inkscape:version="0.92.4 (5da689c313, 2019-01-14)"><metadata
   id="metadata986"><rdf:RDF><cc:Work
       rdf:about=""><dc:format>image/svg+xml</dc:format><dc:type
         rdf:resource="http://purl.org/dc/dcmitype/StillImage" /></cc:Work></rdf:RDF></metadata><defs
   id="defs984" /><sodipodi:namedview
   pagecolor="#ffffff"
   bordercolor="#666666"
   borderopacity="1"
   objecttolerance="10"
   gridtolerance="10"
   guidetolerance="10"
   inkscape:pageopacity="0"
   inkscape:pageshadow="2"
   inkscape:window-width="1920"
   inkscape:window-height="1017"
   id="namedview982"
   showgrid="false"
   inkscape:zoom="4.9320796"
   inkscape:cx="119.2583"
   inkscape:cy="60.256895"
   inkscape:window-x="-8"
   inkscape:window-y="-8"
   inkscape:window-maximized="1"
   inkscape:current-layer="Layer_1" />
<style
   type="text/css"
   id="style947">
	.st0{fill:#8CC4C1;}
	.st1{fill:#286060;}
</style>
<path
   class="st0"
   d="M87.1,11.4c0-0.8-0.3-1.6-0.9-2.2l-8.3-8.3C77.3,0.3,76.5,0,75.7,0H40.5c-1.7,0-3.1,1.4-3.1,3.1v33.5h49.7V11.4  z"
   id="path949"
   style="fill:#1482c2;fill-opacity:1" />
<g
   id="g975">
	<path
   d="M50.7,18.7c0,1.7-0.3,3-0.9,3.9s-1.5,1.3-2.6,1.3c-1.2,0-2-0.4-2.6-1.3c-0.6-0.9-0.9-2.1-0.9-3.8c0-1.8,0.3-3.1,0.9-3.9   s1.4-1.3,2.6-1.3c1.2,0,2,0.4,2.6,1.3C50.4,15.8,50.7,17,50.7,18.7z M45.8,18.7c0,1.2,0.1,2.1,0.3,2.6s0.6,0.8,1.1,0.8   c0.5,0,0.8-0.3,1.1-0.8c0.2-0.5,0.3-1.4,0.3-2.6c0-1.2-0.1-2.1-0.3-2.6c-0.2-0.5-0.6-0.8-1.1-0.8c-0.5,0-0.9,0.3-1.1,0.8   C45.9,16.6,45.8,17.5,45.8,18.7z"
   id="path951" />
	<path
   d="M52.5,23.7v-10h2.1v10H52.5z"
   id="path953" />
	<path
   d="M63.4,18.7c0,1.7-0.3,3-0.9,3.9s-1.5,1.3-2.6,1.3c-1.2,0-2-0.4-2.6-1.3c-0.6-0.9-0.9-2.1-0.9-3.8c0-1.8,0.3-3.1,0.9-3.9   s1.4-1.3,2.6-1.3c1.2,0,2,0.4,2.6,1.3C63.1,15.8,63.4,17,63.4,18.7z M58.5,18.7c0,1.2,0.1,2.1,0.3,2.6s0.6,0.8,1.1,0.8   c0.5,0,0.8-0.3,1.1-0.8c0.2-0.5,0.3-1.4,0.3-2.6c0-1.2-0.1-2.1-0.3-2.6c-0.2-0.5-0.6-0.8-1.1-0.8c-0.5,0-0.9,0.3-1.1,0.8   C58.6,16.6,58.5,17.5,58.5,18.7z"
   id="path955" />
	<path
   d="M65.1,23.7v-10h2.1v10H65.1z"
   id="path957" />
	<path
   d="M69.8,23.7v-10h2.1v10H69.8z"
   id="path959" />
	<path
   d="M80.7,18.7c0,1.7-0.3,3-0.9,3.9s-1.5,1.3-2.6,1.3c-1.2,0-2-0.4-2.6-1.3c-0.6-0.9-0.9-2.1-0.9-3.8c0-1.8,0.3-3.1,0.9-3.9   s1.4-1.3,2.6-1.3c1.2,0,2,0.4,2.6,1.3C80.4,15.8,80.7,17,80.7,18.7z M75.8,18.7c0,1.2,0.1,2.1,0.3,2.6s0.6,0.8,1.1,0.8   c0.5,0,0.8-0.3,1.1-0.8c0.2-0.5,0.3-1.4,0.3-2.6c0-1.2-0.1-2.1-0.3-2.6c-0.2-0.5-0.6-0.8-1.1-0.8c-0.5,0-0.9,0.3-1.1,0.8   C75.9,16.6,75.8,17.5,75.8,18.7z"
   id="path961" />
	<rect
   x="44.5"
   y="30.6"
   width="2.1"
   height="6"
   id="rect963" />
	<path
   d="M50.5,35.6c0-1.2,0.1-2.1,0.3-2.6c0.2-0.5,0.6-0.8,1.1-0.8c0.5,0,0.8,0.3,1.1,0.8s0.3,1.4,0.3,2.6c0,0.4,0,0.7,0,1h2.1   c0-0.3,0-0.7,0-1c0-1.7-0.3-3-0.9-3.8c-0.6-0.9-1.5-1.3-2.6-1.3c-1.2,0-2.1,0.4-2.6,1.3s-0.9,2.1-0.9,3.9c0,0.4,0,0.7,0,1h2.1   C50.5,36.3,50.5,36,50.5,35.6z"
   id="path965" />
	<path
   d="M58.5,35.6c0-1.2,0.1-2.1,0.3-2.6c0.2-0.5,0.6-0.8,1.1-0.8c0.5,0,0.8,0.3,1.1,0.8s0.3,1.4,0.3,2.6c0,0.4,0,0.7,0,1h2.1   c0-0.3,0-0.7,0-1c0-1.7-0.3-3-0.9-3.8c-0.6-0.9-1.5-1.3-2.6-1.3c-1.2,0-2.1,0.4-2.6,1.3s-0.9,2.1-0.9,3.9c0,0.4,0,0.7,0,1h2.1   C58.5,36.3,58.5,36,58.5,35.6z"
   id="path967" />
	<rect
   x="65.1"
   y="30.6"
   width="2.1"
   height="6"
   id="rect969" />
	<path
   d="M71.1,35.6c0-1.2,0.1-2.1,0.3-2.6c0.2-0.5,0.6-0.8,1.1-0.8c0.5,0,0.8,0.3,1.1,0.8s0.3,1.4,0.3,2.6c0,0.4,0,0.7,0,1H76   c0-0.3,0-0.7,0-1c0-1.7-0.3-3-0.9-3.8c-0.6-0.9-1.5-1.3-2.6-1.3c-1.2,0-2.1,0.4-2.6,1.3S69,33.8,69,35.6c0,0.4,0,0.7,0,1h2.1   C71.1,36.3,71.1,36,71.1,35.6z"
   id="path971" />
	<rect
   x="77.8"
   y="30.6"
   width="2.1"
   height="6"
   id="rect973" />
</g>
<path
   class="st1"
   d="M124,62.6l-19.4-25.4c-0.3-0.4-0.7-0.6-1.1-0.6c0,0,0,0-0.1,0H20.9c-0.5,0-0.9,0.2-1.2,0.6L0.3,62.6  c-0.5,0.6-0.4,1.6,0.3,2.1C0.9,64.9,1.2,65,1.5,65c0.5,0,0.9-0.2,1.2-0.6l18.2-23.8v55.1h82.6v-55l18.2,23.7  c0.3,0.4,0.7,0.6,1.2,0.6c0.3,0,0.6-0.1,0.9-0.3C124.4,64.2,124.6,63.2,124,62.6z M71.4,54.5H53.1c-1.7,0-3-1.3-3-3s1.3-3,3-3h18.3  c1.7,0,3,1.3,3,3S73,54.5,71.4,54.5z"
   id="path977"
   style="fill:#003380" />
<path
   class="st1"
   d="M103.5,36.6L103.5,36.6C103.5,36.6,103.5,36.6,103.5,36.6L103.5,36.6z"
   id="path979" />
</svg>