<?xml version="1.0" encoding="UTF-8" standalone="no"?>
<svg
   xmlns:dc="http://purl.org/dc/elements/1.1/"
   xmlns:cc="http://creativecommons.org/ns#"
   xmlns:rdf="http://www.w3.org/1999/02/22-rdf-syntax-ns#"
   xmlns:svg="http://www.w3.org/2000/svg"
   xmlns="http://www.w3.org/2000/svg"
   xmlns:sodipodi="http://sodipodi.sourceforge.net/DTD/sodipodi-0.dtd"
   xmlns:inkscape="http://www.inkscape.org/namespaces/inkscape"
   id="Layer_1"
   data-name="Layer 1"
   viewBox="0 0 66.06 90.58"
   version="1.1"
   sodipodi:docname="icon5.svg"
   inkscape:version="0.92.4 (5da689c313, 2019-01-14)">
  <metadata
     id="metadata3040">
    <rdf:RDF>
      <cc:Work
         rdf:about="">
        <dc:format>image/svg+xml</dc:format>
        <dc:type
           rdf:resource="http://purl.org/dc/dcmitype/StillImage" />
      </cc:Work>
    </rdf:RDF>
  </metadata>
  <sodipodi:namedview
     pagecolor="#ffffff"
     bordercolor="#666666"
     borderopacity="1"
     objecttolerance="10"
     gridtolerance="10"
     guidetolerance="10"
     inkscape:pageopacity="0"
     inkscape:pageshadow="2"
     inkscape:window-width="1920"
     inkscape:window-height="1017"
     id="namedview3038"
     showgrid="false"
     inkscape:zoom="2.6054316"
     inkscape:cx="33.029999"
     inkscape:cy="45.290001"
     inkscape:window-x="-8"
     inkscape:window-y="-8"
     inkscape:window-maximized="1"
     inkscape:current-layer="Layer_1" />
  <defs
     id="defs3027">
    <style
       id="style3025">.cls-1{fill:#8cc4c1;}.cls-2{fill:#212429;}</style>
  </defs>
  <title
     id="title3029">01</title>
  <path
     class="cls-1"
     d="M0,4.17V86.4a4.17,4.17,0,0,0,4.17,4.17H61.88a4.17,4.17,0,0,0,4.17-4.17V15.13a4.17,4.17,0,0,0-1.22-3l-11-11a4.17,4.17,0,0,0-3-1.22H4.17A4.17,4.17,0,0,0,0,4.17Z"
     id="path3031"
     style="fill:#1482c2;fill-opacity:1" />
  <path
     class="cls-2"
     d="M30.93,49.87a9.23,9.23,0,0,1-5.77,2.47.87.87,0,0,0-.5.14.62.62,0,0,0-.11.43v1.28a.85.85,0,0,1-.2.62.91.91,0,0,1-.66.2h-2Q21,55,21,54.3V52.88a.61.61,0,0,0-.11-.43.55.55,0,0,0-.39-.11A13.4,13.4,0,0,1,16,51.4a12.39,12.39,0,0,1-3.57-2.33q-.53-.43-.53-.75a.54.54,0,0,1,.18-.39l2.13-2.31a.88.88,0,0,1,.57-.32.69.69,0,0,1,.46.25,8.5,8.5,0,0,0,5.26,2.81l.21,0Q21,48.4,21,48l0-6.07a.63.63,0,0,0-.53-.71q-4.19-.92-6-2.91a6.93,6.93,0,0,1-1.83-4.87,6.58,6.58,0,0,1,2-4.85,10.39,10.39,0,0,1,5.68-2.65q.67-.18.67-.6V24a.52.52,0,0,1,.12-.35.39.39,0,0,1,.3-.14h2.42q.64,0,.64.67v1.42c0,.14.15.25.46.32a15.27,15.27,0,0,1,6.15,2.66.53.53,0,0,1,.28.46.78.78,0,0,1-.18.43l-1.88,2.42a.58.58,0,0,1-.43.25.81.81,0,0,1-.57-.28,7.09,7.09,0,0,0-1.51-1.12A7.56,7.56,0,0,0,25,30l-.14,0a.28.28,0,0,0-.32.32v6a.42.42,0,0,0,.09.3.8.8,0,0,0,.34.16l2,.53A9.33,9.33,0,0,1,31.41,40a6.77,6.77,0,0,1,1.67,4.57A7.1,7.1,0,0,1,30.93,49.87ZM21.07,30.21q0-.53-.46-.43a4.56,4.56,0,0,0-2.45,1.12,2.67,2.67,0,0,0-.85,2A2.51,2.51,0,0,0,18,34.7a5.52,5.52,0,0,0,2.34,1.23.5.5,0,0,0,.21,0q.5,0,.5-.67ZM25,48.4a4.45,4.45,0,0,0,2.52-1,2.56,2.56,0,0,0,.92-2,2.79,2.79,0,0,0-.82-2.06A5.91,5.91,0,0,0,25,42a.5.5,0,0,0-.21,0q-.25,0-.25.39v5.75Q24.51,48.47,25,48.4Z"
     id="path3033" />
  <rect
     class="cls-2"
     x="34.96"
     y="52.28"
     width="19.19"
     height="3.25"
     id="rect3035" />
</svg>
