<?xml version="1.0" encoding="UTF-8" standalone="no"?>
<svg
   xmlns:dc="http://purl.org/dc/elements/1.1/"
   xmlns:cc="http://creativecommons.org/ns#"
   xmlns:rdf="http://www.w3.org/1999/02/22-rdf-syntax-ns#"
   xmlns:svg="http://www.w3.org/2000/svg"
   xmlns="http://www.w3.org/2000/svg"
   xmlns:sodipodi="http://sodipodi.sourceforge.net/DTD/sodipodi-0.dtd"
   xmlns:inkscape="http://www.inkscape.org/namespaces/inkscape"
   id="Layer_1"
   data-name="Layer 1"
   viewBox="0 0 116 87.73"
   version="1.1"
   sodipodi:docname="icon6.svg"
   inkscape:version="0.92.4 (5da689c313, 2019-01-14)">
  <metadata
     id="metadata3629">
    <rdf:RDF>
      <cc:Work
         rdf:about="">
        <dc:format>image/svg+xml</dc:format>
        <dc:type
           rdf:resource="http://purl.org/dc/dcmitype/StillImage" />
      </cc:Work>
    </rdf:RDF>
  </metadata>
  <sodipodi:namedview
     pagecolor="#ffffff"
     bordercolor="#666666"
     borderopacity="1"
     objecttolerance="10"
     gridtolerance="10"
     guidetolerance="10"
     inkscape:pageopacity="0"
     inkscape:pageshadow="2"
     inkscape:window-width="1920"
     inkscape:window-height="1017"
     id="namedview3627"
     showgrid="false"
     inkscape:zoom="2.6900717"
     inkscape:cx="58"
     inkscape:cy="43.865002"
     inkscape:window-x="-8"
     inkscape:window-y="-8"
     inkscape:window-maximized="1"
     inkscape:current-layer="Layer_1" />
  <defs
     id="defs3610">
    <style
       id="style3608">.cls-1{fill:#0f393e;}.cls-2{fill:#1c1c2d;}.cls-3{fill:#286060;}.cls-4{fill:#8cc4c1;}</style>
  </defs>
  <title
     id="title3612">01</title>
  <path
     class="cls-1"
     d="M116,16.16V87.73H0V3.51A3.51,3.51,0,0,1,3.51,0H27.26a3.51,3.51,0,0,1,3.51,3.51V12h81A4.18,4.18,0,0,1,116,16.16Z"
     id="path3614"
     style="fill:#003380;fill-opacity:1" />
  <rect
     class="cls-2"
     x="4.44"
     y="4.43"
     width="22.19"
     height="4.44"
     id="rect3616" />
  <path
     class="cls-3"
     d="M116,31.2V87.73H24.37V21.21a2.77,2.77,0,0,1,2.77-2.77H45.91a2.77,2.77,0,0,1,2.77,2.77v6.69h64A3.3,3.3,0,0,1,116,31.2Z"
     id="path3618"
     style="fill:#1482c2;fill-opacity:1" />
  <rect
     class="cls-2"
     x="27.88"
     y="21.93"
     width="17.53"
     height="3.51"
     id="rect3620" />
  <path
     class="cls-4"
     d="M116,45.48V87.73H47.52V38a2.07,2.07,0,0,1,2.07-2.07h14A2.07,2.07,0,0,1,65.69,38v5h47.84A2.47,2.47,0,0,1,116,45.48Z"
     id="path3622"
     style="fill:#0055d4" />
  <rect
     class="cls-2"
     x="50.14"
     y="38.56"
     width="13.1"
     height="2.62"
     id="rect3624" />
</svg>
